<?xml version="1.0" standalone="no"?><svg xmlns="http://www.w3.org/2000/svg" viewBox="0 0 1440 320"><path fill="#f36522" fill-opacity="1" d="M0,96L30,122.7C60,149,120,203,180,202.7C240,203,300,149,360,154.7C420,160,480,224,540,240C600,256,660,224,720,218.7C780,213,840,235,900,213.3C960,192,1020,128,1080,106.7C1140,85,1200,107,1260,128C1320,149,1380,171,1410,181.3L1440,192L1440,320L1410,320C1380,320,1320,320,1260,320C1200,320,1140,320,1080,320C1020,320,960,320,900,320C840,320,780,320,720,320C660,320,600,320,540,320C480,320,420,320,360,320C300,320,240,320,180,320C120,320,60,320,30,320L0,320Z"></path></svg>